<svg width="189" height="77" viewBox="0 0 189 77" fill="none" xmlns="http://www.w3.org/2000/svg">
<path d="M1.29555 76.0818L170.884 74.8489L188.559 76.6561L186.257 51.204L188.398 38.7651L171.274 37.093L137.854 35.7841H86.5049L83.9146 37.093L10.4045 33.6561L0.559082 40.7833L4.19058 56.0343L1.29555 76.0818Z" fill="white"/>
<path d="M188.559 0L12.3782 1.23991L0 0.156036L2.1537 30.1741L0 40.5265L12.3698 40.9851L47.5215 39.0998L96.0262 41.656L99.1511 39.2102L172.487 40.4246L188.399 38.4968L186.481 14.5308L188.559 0Z" fill="#220D0F"/>
<path d="M33.5689 45.4552L26.5419 68.1894H19.4558L12.1079 45.4552H19.4389L23.0284 57.8433C23.2734 58.5805 23.4929 59.3008 23.6788 60.0041L27.8679 45.4467H33.5858L33.5689 45.4552Z" fill="#220D0F"/>
<path d="M44.8356 68.5368C41.6515 68.5368 39.0502 67.4776 37.0401 65.3593C35.03 63.2409 34.0249 60.4023 34.0249 56.852C34.0249 53.3016 34.9877 50.6494 36.9049 48.4379C38.8222 46.2263 41.4911 45.1163 44.8947 45.1163C48.0451 45.1163 50.621 46.1585 52.6058 48.2514C54.5906 50.3359 55.5872 53.1237 55.5872 56.6147C55.5872 60.1058 54.5822 63.1138 52.5805 65.2915C50.5788 67.4692 47.9944 68.5538 44.8272 68.5538L44.8356 68.5368ZM44.8018 63.3765C45.9758 63.3765 46.8204 62.8596 47.3356 61.8343C47.8508 60.8091 48.1042 58.928 48.1042 56.1995C48.1042 52.2509 47.0484 50.2681 44.937 50.2681C42.6566 50.2681 41.5164 52.522 41.5164 57.0299C41.5164 61.2581 42.6144 63.3765 44.8018 63.3765Z" fill="#220D0F"/>
<path d="M76.1445 45.4552L69.0499 58.5636V68.1894H62.2932V58.5636L54.6666 45.4552H62.2764L66.2459 52.9457L70.055 45.4552H76.136H76.1445Z" fill="#220D0F"/>
<path d="M88.2644 68.1894L86.9806 63.707H80.908L79.5482 68.1894H73.9064L80.8996 45.4552H88.2559L95.3589 68.1894H88.2644ZM82.0989 58.75H85.7644L83.9316 52.1577L82.0989 58.75Z" fill="#220D0F"/>
<path d="M116.305 55.4454V68.1809H112.901C112.622 67.2404 112.318 66.4439 111.989 65.7999C110.587 67.6217 108.501 68.5283 105.747 68.5283C102.825 68.5283 100.426 67.503 98.543 65.4525C96.6595 63.4019 95.722 60.6311 95.722 57.1316C95.722 53.632 96.6342 50.8782 98.4501 48.5649C100.266 46.2517 102.977 45.0908 106.575 45.0908C109.278 45.0908 111.448 45.7772 113.095 47.1583C114.742 48.5395 115.815 50.4884 116.296 53.022L109.556 53.6913C109.227 51.3273 108.188 50.141 106.457 50.141C104.176 50.141 103.036 52.3186 103.036 56.6655C103.036 59.3007 103.399 61.0293 104.134 61.8682C104.86 62.7071 105.747 63.1223 106.786 63.1223C107.631 63.1223 108.34 62.8681 108.931 62.3597C109.523 61.8513 109.827 61.148 109.835 60.2583H106.085V55.4284H116.296L116.305 55.4454Z" fill="#220D0F"/>
<path d="M137.022 62.7579V68.1894H119.979V45.4552H137.022V50.7003H126.794V53.9964H135.063V59.0381H126.794V62.7495H137.022V62.7579Z" fill="#220D0F"/>
<path d="M159.945 68.1894H152.233L148.923 59.4957H146.727V68.1894H139.776V45.4552H151.608C154.218 45.4552 156.245 46.0653 157.689 47.2939C159.134 48.5226 159.852 50.141 159.852 52.1492C159.852 53.4626 159.59 54.615 159.058 55.6233C158.526 56.6316 157.453 57.5129 155.84 58.2755L159.936 68.1809L159.945 68.1894ZM146.735 54.6319H149.708C150.578 54.6319 151.287 54.4455 151.82 54.0812C152.352 53.7168 152.613 53.1745 152.613 52.4627C152.613 51.0053 151.727 50.285 149.945 50.285H146.744V54.6319H146.735Z" fill="#220D0F"/>
<path d="M160.89 61.6055L167.343 60.4362C167.884 62.2665 169.277 63.1816 171.524 63.1816C173.272 63.1816 174.142 62.7155 174.142 61.7835C174.142 61.292 173.939 60.9192 173.534 60.6396C173.128 60.3684 172.411 60.1227 171.363 59.9193C167.394 59.1567 164.843 58.1568 163.711 56.9197C162.58 55.6911 162.022 54.2421 162.022 52.5729C162.022 50.4291 162.833 48.6497 164.455 47.2261C166.076 45.8026 168.407 45.0908 171.448 45.0908C176.059 45.0908 179.108 46.955 180.595 50.6663L174.835 52.4119C174.235 50.8951 173.027 50.1325 171.203 50.1325C169.691 50.1325 168.931 50.607 168.931 51.5476C168.931 51.9712 169.1 52.2932 169.446 52.5305C169.792 52.7677 170.451 52.9881 171.439 53.1914C174.15 53.7676 176.076 54.276 177.216 54.7166C178.356 55.1573 179.311 55.9199 180.071 56.9875C180.831 58.0552 181.22 59.3262 181.22 60.7751C181.22 63.0714 180.291 64.9356 178.432 66.3676C176.574 67.7996 174.134 68.5114 171.11 68.5114C165.586 68.5114 162.183 66.1981 160.882 61.5801L160.89 61.6055Z" fill="#220D0F"/>
<path d="M12.1586 8.93474H22.699C24.5909 8.93474 26.0098 9.172 26.9558 9.62957C27.9017 10.0956 28.6872 10.7565 29.3121 11.6208C29.9287 12.4851 30.2412 13.5358 30.2412 14.7814C30.2412 17.298 28.8814 18.9758 26.1618 19.8146C27.7328 20.1705 28.9068 20.8738 29.6922 21.9245C30.4777 22.9752 30.8662 24.1276 30.8662 25.3647C30.8662 27.0594 30.2243 28.5253 28.9405 29.7624C27.6568 30.9995 25.5791 31.6181 22.6906 31.6181H12.1501V8.92627L12.1586 8.93474ZM17.4457 12.9427V17.9166H21.4575C22.9271 17.9166 23.8477 17.6285 24.2362 17.0438C24.6247 16.4591 24.8105 15.9084 24.8105 15.3745C24.8105 14.7984 24.65 14.2984 24.3375 13.8832C24.025 13.468 23.6788 13.2053 23.2987 13.1037C22.9186 13.002 22.1838 12.9427 21.0774 12.9427H17.4457ZM17.4457 21.9499V27.4153H21.5166C22.9017 27.4153 23.8899 27.1696 24.4558 26.6866C25.0301 26.1951 25.3173 25.5172 25.3173 24.6445C25.3173 23.9158 25.0385 23.2803 24.4896 22.7464C23.9406 22.2126 23.02 21.9499 21.7447 21.9499H17.4457Z" fill="#EAA423"/>
<path d="M45.3762 8.93475L52.4538 31.6266H46.7613L45.3678 26.9577H38.0536L36.6347 31.6266H31.9895L39.236 8.93475H45.3678H45.3762ZM39.329 22.7634H44.1178L41.7445 14.7984L39.329 22.7634Z" fill="#EAA423"/>
<path d="M60.224 22.6363V31.6266H54.8862V8.93475H64.827C66.6598 8.93475 68.1294 9.14659 69.2442 9.57026C70.3506 9.99393 71.2712 10.782 72.006 11.9174C72.7324 13.0613 73.0955 14.3239 73.0955 15.722C73.0955 18.4419 71.7864 20.3993 69.1682 21.5856L73.3405 31.6181H67.4875L64.0162 22.6278H60.224V22.6363ZM60.224 12.9766V18.7639H63.4757C64.5399 18.7639 65.3084 18.6877 65.7899 18.5436C66.2713 18.3911 66.702 18.0606 67.0736 17.5438C67.4537 17.0269 67.6395 16.4422 67.6395 15.7728C67.6395 15.1034 67.4537 14.5781 67.0736 14.0781C66.702 13.5782 66.2882 13.2731 65.849 13.1545C65.4098 13.0359 64.5821 12.9766 63.3659 12.9766H60.2325H60.224Z" fill="#EAA423"/>
<path d="M88.3066 8.93475L95.3843 31.6266H89.6918L88.2982 26.9577H80.9841L79.5652 31.6266H74.9199L82.1665 8.93475H88.2982H88.3066ZM82.2594 22.7634H87.0482L84.6749 14.7984L82.2594 22.7634Z" fill="#EAA423"/>
<path d="M97.8251 8.93474H108.366C110.257 8.93474 111.676 9.172 112.622 9.62957C113.568 10.0956 114.354 10.7565 114.979 11.6208C115.595 12.4851 115.908 13.5358 115.908 14.7814C115.908 17.298 114.548 18.9758 111.828 19.8146C113.399 20.1705 114.573 20.8738 115.359 21.9245C116.144 22.9752 116.533 24.1276 116.533 25.3647C116.533 27.0594 115.891 28.5253 114.607 29.7624C113.323 30.9995 111.246 31.6181 108.357 31.6181H97.8167V8.92627L97.8251 8.93474ZM103.112 12.9427V17.9166H107.124C108.594 17.9166 109.514 17.6285 109.903 17.0438C110.291 16.4591 110.477 15.9084 110.477 15.3745C110.477 14.7984 110.317 14.2984 110.004 13.8832C109.692 13.468 109.345 13.2053 108.965 13.1037C108.585 13.002 107.85 12.9427 106.744 12.9427H103.112ZM103.112 21.9499V27.4153H107.183C108.568 27.4153 109.556 27.1696 110.122 26.6866C110.697 26.1951 110.984 25.5172 110.984 24.6445C110.984 23.9158 110.705 23.2803 110.156 22.7464C109.607 22.2126 108.686 21.9499 107.411 21.9499H103.112Z" fill="#EAA423"/>
<path d="M131.043 8.93475L138.12 31.6266H132.428L131.034 26.9577H123.72L122.301 31.6266H117.656L124.902 8.93475H131.034H131.043ZM124.995 22.7634H129.784L127.411 14.7984L124.995 22.7634Z" fill="#EAA423"/>
<path d="M145.891 22.6363V31.6266H140.553V8.93475H150.494C152.326 8.93475 153.796 9.14659 154.911 9.57026C156.017 9.99393 156.938 10.782 157.673 11.9174C158.399 13.0613 158.762 14.3239 158.762 15.722C158.762 18.4419 157.453 20.3993 154.835 21.5856L159.007 31.6181H153.154L149.683 22.6278H145.891V22.6363ZM145.891 12.9766V18.7639H149.142C150.206 18.7639 150.975 18.6877 151.456 18.5436C151.938 18.3911 152.369 18.0606 152.74 17.5438C153.12 17.0269 153.306 16.4422 153.306 15.7728C153.306 15.1034 153.12 14.5781 152.74 14.0781C152.369 13.5782 151.955 13.2731 151.515 13.1545C151.076 13.0359 150.249 12.9766 149.032 12.9766H145.899H145.891Z" fill="#EAA423"/>
<path d="M173.973 8.93475L181.051 31.6266H175.358L173.965 26.9577H166.65L165.232 31.6266H160.586L167.833 8.93475H173.965H173.973ZM167.926 22.7634H172.715L170.341 14.7984L167.926 22.7634Z" fill="#EAA423"/>
</svg>
